<svg id="visual" viewBox="0 0 450 300" width="450" height="300" xmlns="http://www.w3.org/2000/svg" xmlns:xlink="http://www.w3.org/1999/xlink" version="1.1"><rect x="0" y="0" width="450" height="300" fill="#FFEFD3"></rect><path d="M0 91L20 91L20 77L39 77L39 110L59 110L59 64L78 64L78 109L98 109L98 100L117 100L117 106L137 106L137 76L157 76L157 75L176 75L176 66L196 66L196 82L215 82L215 73L235 73L235 99L254 99L254 91L274 91L274 103L293 103L293 115L313 115L313 59L333 59L333 75L352 75L352 79L372 79L372 115L391 115L391 75L411 75L411 66L430 66L430 113L450 113L450 101L450 301L450 301L430 301L430 301L411 301L411 301L391 301L391 301L372 301L372 301L352 301L352 301L333 301L333 301L313 301L313 301L293 301L293 301L274 301L274 301L254 301L254 301L235 301L235 301L215 301L215 301L196 301L196 301L176 301L176 301L157 301L157 301L137 301L137 301L117 301L117 301L98 301L98 301L78 301L78 301L59 301L59 301L39 301L39 301L20 301L20 301L0 301Z" fill="#b1b1aa"></path><path d="M0 112L20 112L20 98L39 98L39 105L59 105L59 78L78 78L78 84L98 84L98 129L117 129L117 117L137 117L137 101L157 101L157 88L176 88L176 116L196 116L196 120L215 120L215 105L235 105L235 130L254 130L254 81L274 81L274 98L293 98L293 102L313 102L313 89L333 89L333 84L352 84L352 109L372 109L372 121L391 121L391 119L411 119L411 78L430 78L430 84L450 84L450 106L450 301L450 301L430 301L430 301L411 301L411 301L391 301L391 301L372 301L372 301L352 301L352 301L333 301L333 301L313 301L313 301L293 301L293 301L274 301L274 301L254 301L254 301L235 301L235 301L215 301L215 301L196 301L196 301L176 301L176 301L157 301L157 301L137 301L137 301L117 301L117 301L98 301L98 301L78 301L78 301L59 301L59 301L39 301L39 301L20 301L20 301L0 301Z" fill="#9f9f99"></path><path d="M0 132L20 132L20 102L39 102L39 102L59 102L59 118L78 118L78 149L98 149L98 137L117 137L117 103L137 103L137 127L157 127L157 132L176 132L176 141L196 141L196 144L215 144L215 121L235 121L235 120L254 120L254 125L274 125L274 114L293 114L293 130L313 130L313 113L333 113L333 141L352 141L352 110L372 110L372 114L391 114L391 115L411 115L411 120L430 120L430 130L450 130L450 98L450 301L450 301L430 301L430 301L411 301L411 301L391 301L391 301L372 301L372 301L352 301L352 301L333 301L333 301L313 301L313 301L293 301L293 301L274 301L274 301L254 301L254 301L235 301L235 301L215 301L215 301L196 301L196 301L176 301L176 301L157 301L157 301L137 301L137 301L117 301L117 301L98 301L98 301L78 301L78 301L59 301L59 301L39 301L39 301L20 301L20 301L0 301Z" fill="#8e8e88"></path><path d="M0 145L20 145L20 128L39 128L39 116L59 116L59 129L78 129L78 131L98 131L98 149L117 149L117 162L137 162L137 145L157 145L157 127L176 127L176 125L196 125L196 139L215 139L215 120L235 120L235 158L254 158L254 120L274 120L274 117L293 117L293 126L313 126L313 150L333 150L333 130L352 130L352 165L372 165L372 116L391 116L391 161L411 161L411 162L430 162L430 121L450 121L450 160L450 301L450 301L430 301L430 301L411 301L411 301L391 301L391 301L372 301L372 301L352 301L352 301L333 301L333 301L313 301L313 301L293 301L293 301L274 301L274 301L254 301L254 301L235 301L235 301L215 301L215 301L196 301L196 301L176 301L176 301L157 301L157 301L137 301L137 301L117 301L117 301L98 301L98 301L78 301L78 301L59 301L59 301L39 301L39 301L20 301L20 301L0 301Z" fill="#7d7d77"></path><path d="M0 177L20 177L20 152L39 152L39 169L59 169L59 144L78 144L78 144L98 144L98 170L117 170L117 168L137 168L137 166L157 166L157 167L176 167L176 158L196 158L196 181L215 181L215 173L235 173L235 134L254 134L254 175L274 175L274 162L293 162L293 172L313 172L313 148L333 148L333 135L352 135L352 178L372 178L372 134L391 134L391 137L411 137L411 157L430 157L430 152L450 152L450 147L450 301L450 301L430 301L430 301L411 301L411 301L391 301L391 301L372 301L372 301L352 301L352 301L333 301L333 301L313 301L313 301L293 301L293 301L274 301L274 301L254 301L254 301L235 301L235 301L215 301L215 301L196 301L196 301L176 301L176 301L157 301L157 301L137 301L137 301L117 301L117 301L98 301L98 301L78 301L78 301L59 301L59 301L39 301L39 301L20 301L20 301L0 301Z" fill="#6d6d67"></path><path d="M0 191L20 191L20 172L39 172L39 193L59 193L59 176L78 176L78 162L98 162L98 180L117 180L117 197L137 197L137 168L157 168L157 198L176 198L176 171L196 171L196 195L215 195L215 193L235 193L235 184L254 184L254 163L274 163L274 170L293 170L293 160L313 160L313 193L333 193L333 167L352 167L352 192L372 192L372 183L391 183L391 172L411 172L411 174L430 174L430 189L450 189L450 176L450 301L450 301L430 301L430 301L411 301L411 301L391 301L391 301L372 301L372 301L352 301L352 301L333 301L333 301L313 301L313 301L293 301L293 301L274 301L274 301L254 301L254 301L235 301L235 301L215 301L215 301L196 301L196 301L176 301L176 301L157 301L157 301L137 301L137 301L117 301L117 301L98 301L98 301L78 301L78 301L59 301L59 301L39 301L39 301L20 301L20 301L0 301Z" fill="#5d5d57"></path><path d="M0 214L20 214L20 209L39 209L39 197L59 197L59 182L78 182L78 172L98 172L98 181L117 181L117 181L137 181L137 205L157 205L157 187L176 187L176 186L196 186L196 193L215 193L215 192L235 192L235 216L254 216L254 185L274 185L274 197L293 197L293 190L313 190L313 182L333 182L333 213L352 213L352 177L372 177L372 170L391 170L391 178L411 178L411 203L430 203L430 193L450 193L450 201L450 301L450 301L430 301L430 301L411 301L411 301L391 301L391 301L372 301L372 301L352 301L352 301L333 301L333 301L313 301L313 301L293 301L293 301L274 301L274 301L254 301L254 301L235 301L235 301L215 301L215 301L196 301L196 301L176 301L176 301L157 301L157 301L137 301L137 301L117 301L117 301L98 301L98 301L78 301L78 301L59 301L59 301L39 301L39 301L20 301L20 301L0 301Z" fill="#4d4d47"></path><path d="M0 229L20 229L20 224L39 224L39 225L59 225L59 217L78 217L78 216L98 216L98 192L117 192L117 199L137 199L137 230L157 230L157 191L176 191L176 189L196 189L196 228L215 228L215 209L235 209L235 219L254 219L254 194L274 194L274 204L293 204L293 232L313 232L313 210L333 210L333 215L352 215L352 218L372 218L372 230L391 230L391 196L411 196L411 222L430 222L430 230L450 230L450 197L450 301L450 301L430 301L430 301L411 301L411 301L391 301L391 301L372 301L372 301L352 301L352 301L333 301L333 301L313 301L313 301L293 301L293 301L274 301L274 301L254 301L254 301L235 301L235 301L215 301L215 301L196 301L196 301L176 301L176 301L157 301L157 301L137 301L137 301L117 301L117 301L98 301L98 301L78 301L78 301L59 301L59 301L39 301L39 301L20 301L20 301L0 301Z" fill="#3e3e39"></path><path d="M0 212L20 212L20 235L39 235L39 235L59 235L59 213L78 213L78 225L98 225L98 240L117 240L117 218L137 218L137 233L157 233L157 209L176 209L176 226L196 226L196 207L215 207L215 222L235 222L235 244L254 244L254 225L274 225L274 222L293 222L293 246L313 246L313 211L333 211L333 234L352 234L352 211L372 211L372 226L391 226L391 209L411 209L411 222L430 222L430 227L450 227L450 245L450 301L450 301L430 301L430 301L411 301L411 301L391 301L391 301L372 301L372 301L352 301L352 301L333 301L333 301L313 301L313 301L293 301L293 301L274 301L274 301L254 301L254 301L235 301L235 301L215 301L215 301L196 301L196 301L176 301L176 301L157 301L157 301L137 301L137 301L117 301L117 301L98 301L98 301L78 301L78 301L59 301L59 301L39 301L39 301L20 301L20 301L0 301Z" fill="#30302a"></path><path d="M0 258L20 258L20 247L39 247L39 236L59 236L59 246L78 246L78 239L98 239L98 227L117 227L117 260L137 260L137 240L157 240L157 252L176 252L176 229L196 229L196 249L215 249L215 265L235 265L235 242L254 242L254 254L274 254L274 258L293 258L293 232L313 232L313 255L333 255L333 246L352 246L352 250L372 250L372 234L391 234L391 256L411 256L411 227L430 227L430 254L450 254L450 234L450 301L450 301L430 301L430 301L411 301L411 301L391 301L391 301L372 301L372 301L352 301L352 301L333 301L333 301L313 301L313 301L293 301L293 301L274 301L274 301L254 301L254 301L235 301L235 301L215 301L215 301L196 301L196 301L176 301L176 301L157 301L157 301L137 301L137 301L117 301L117 301L98 301L98 301L78 301L78 301L59 301L59 301L39 301L39 301L20 301L20 301L0 301Z" fill="#22221d"></path><path d="M0 248L20 248L20 261L39 261L39 262L59 262L59 257L78 257L78 257L98 257L98 265L117 265L117 265L137 265L137 263L157 263L157 246L176 246L176 266L196 266L196 268L215 268L215 269L235 269L235 273L254 273L254 244L274 244L274 259L293 259L293 246L313 246L313 246L333 246L333 276L352 276L352 271L372 271L372 279L391 279L391 267L411 267L411 271L430 271L430 256L450 256L450 257L450 301L450 301L430 301L430 301L411 301L411 301L391 301L391 301L372 301L372 301L352 301L352 301L333 301L333 301L313 301L313 301L293 301L293 301L274 301L274 301L254 301L254 301L235 301L235 301L215 301L215 301L196 301L196 301L176 301L176 301L157 301L157 301L137 301L137 301L117 301L117 301L98 301L98 301L78 301L78 301L59 301L59 301L39 301L39 301L20 301L20 301L0 301Z" fill="#15150f"></path><path d="M0 281L20 281L20 294L39 294L39 264L59 264L59 266L78 266L78 275L98 275L98 269L117 269L117 287L137 287L137 283L157 283L157 278L176 278L176 294L196 294L196 277L215 277L215 278L235 278L235 291L254 291L254 263L274 263L274 281L293 281L293 290L313 290L313 265L333 265L333 297L352 297L352 296L372 296L372 294L391 294L391 289L411 289L411 270L430 270L430 281L450 281L450 283L450 301L450 301L430 301L430 301L411 301L411 301L391 301L391 301L372 301L372 301L352 301L352 301L333 301L333 301L313 301L313 301L293 301L293 301L274 301L274 301L254 301L254 301L235 301L235 301L215 301L215 301L196 301L196 301L176 301L176 301L157 301L157 301L137 301L137 301L117 301L117 301L98 301L98 301L78 301L78 301L59 301L59 301L39 301L39 301L20 301L20 301L0 301Z" fill="#000000"></path></svg>