<svg id="visual" viewBox="0 0 900 450" width="900" height="450" xmlns="http://www.w3.org/2000/svg" xmlns:xlink="http://www.w3.org/1999/xlink" version="1.1"><rect x="0" y="0" width="900" height="450" fill="#95190C"></rect><path d="M0 263L43 263L43 304L86 304L86 226L129 226L129 210L171 210L171 255L214 255L214 189L257 189L257 233L300 233L300 212L343 212L343 202L386 202L386 237L429 237L429 188L471 188L471 196L514 196L514 304L557 304L557 200L600 200L600 263L643 263L643 273L686 273L686 228L729 228L729 274L771 274L771 307L814 307L814 196L857 196L857 254L900 254L900 259L900 0L900 0L857 0L857 0L814 0L814 0L771 0L771 0L729 0L729 0L686 0L686 0L643 0L643 0L600 0L600 0L557 0L557 0L514 0L514 0L471 0L471 0L429 0L429 0L386 0L386 0L343 0L343 0L300 0L300 0L257 0L257 0L214 0L214 0L171 0L171 0L129 0L129 0L86 0L86 0L43 0L43 0L0 0Z" fill="#95190c"></path><path d="M0 264L43 264L43 174L86 174L86 264L129 264L129 249L171 249L171 260L214 260L214 169L257 169L257 171L300 171L300 236L343 236L343 216L386 216L386 172L429 172L429 234L471 234L471 202L514 202L514 205L557 205L557 223L600 223L600 234L643 234L643 207L686 207L686 186L729 186L729 251L771 251L771 179L814 179L814 230L857 230L857 247L900 247L900 254L900 0L900 0L857 0L857 0L814 0L814 0L771 0L771 0L729 0L729 0L686 0L686 0L643 0L643 0L600 0L600 0L557 0L557 0L514 0L514 0L471 0L471 0L429 0L429 0L386 0L386 0L343 0L343 0L300 0L300 0L257 0L257 0L214 0L214 0L171 0L171 0L129 0L129 0L86 0L86 0L43 0L43 0L0 0Z" fill="#8a130a"></path><path d="M0 213L43 213L43 215L86 215L86 151L129 151L129 225L171 225L171 176L214 176L214 149L257 149L257 166L300 166L300 189L343 189L343 204L386 204L386 152L429 152L429 218L471 218L471 158L514 158L514 235L557 235L557 152L600 152L600 169L643 169L643 162L686 162L686 203L729 203L729 164L771 164L771 232L814 232L814 198L857 198L857 219L900 219L900 150L900 0L900 0L857 0L857 0L814 0L814 0L771 0L771 0L729 0L729 0L686 0L686 0L643 0L643 0L600 0L600 0L557 0L557 0L514 0L514 0L471 0L471 0L429 0L429 0L386 0L386 0L343 0L343 0L300 0L300 0L257 0L257 0L214 0L214 0L171 0L171 0L129 0L129 0L86 0L86 0L43 0L43 0L0 0Z" fill="#800d08"></path><path d="M0 189L43 189L43 182L86 182L86 155L129 155L129 200L171 200L171 134L214 134L214 200L257 200L257 136L300 136L300 146L343 146L343 144L386 144L386 132L429 132L429 133L471 133L471 154L514 154L514 215L557 215L557 208L600 208L600 160L643 160L643 150L686 150L686 137L729 137L729 149L771 149L771 209L814 209L814 173L857 173L857 178L900 178L900 221L900 0L900 0L857 0L857 0L814 0L814 0L771 0L771 0L729 0L729 0L686 0L686 0L643 0L643 0L600 0L600 0L557 0L557 0L514 0L514 0L471 0L471 0L429 0L429 0L386 0L386 0L343 0L343 0L300 0L300 0L257 0L257 0L214 0L214 0L171 0L171 0L129 0L129 0L86 0L86 0L43 0L43 0L0 0Z" fill="#750705"></path><path d="M0 115L43 115L43 123L86 123L86 173L129 173L129 187L171 187L171 142L214 142L214 123L257 123L257 166L300 166L300 136L343 136L343 186L386 186L386 130L429 130L429 184L471 184L471 173L514 173L514 171L557 171L557 164L600 164L600 182L643 182L643 183L686 183L686 149L729 149L729 116L771 116L771 114L814 114L814 166L857 166L857 170L900 170L900 152L900 0L900 0L857 0L857 0L814 0L814 0L771 0L771 0L729 0L729 0L686 0L686 0L643 0L643 0L600 0L600 0L557 0L557 0L514 0L514 0L471 0L471 0L429 0L429 0L386 0L386 0L343 0L343 0L300 0L300 0L257 0L257 0L214 0L214 0L171 0L171 0L129 0L129 0L86 0L86 0L43 0L43 0L0 0Z" fill="#6b0202"></path><path d="M0 157L43 157L43 156L86 156L86 116L129 116L129 165L171 165L171 120L214 120L214 149L257 149L257 91L300 91L300 89L343 89L343 130L386 130L386 111L429 111L429 136L471 136L471 165L514 165L514 157L557 157L557 84L600 84L600 92L643 92L643 98L686 98L686 86L729 86L729 108L771 108L771 92L814 92L814 109L857 109L857 94L900 94L900 160L900 0L900 0L857 0L857 0L814 0L814 0L771 0L771 0L729 0L729 0L686 0L686 0L643 0L643 0L600 0L600 0L557 0L557 0L514 0L514 0L471 0L471 0L429 0L429 0L386 0L386 0L343 0L343 0L300 0L300 0L257 0L257 0L214 0L214 0L171 0L171 0L129 0L129 0L86 0L86 0L43 0L43 0L0 0Z" fill="#600000"></path><path d="M0 66L43 66L43 96L86 96L86 77L129 77L129 124L171 124L171 120L214 120L214 69L257 69L257 93L300 93L300 76L343 76L343 103L386 103L386 128L429 128L429 101L471 101L471 107L514 107L514 122L557 122L557 126L600 126L600 67L643 67L643 125L686 125L686 65L729 65L729 115L771 115L771 76L814 76L814 110L857 110L857 123L900 123L900 115L900 0L900 0L857 0L857 0L814 0L814 0L771 0L771 0L729 0L729 0L686 0L686 0L643 0L643 0L600 0L600 0L557 0L557 0L514 0L514 0L471 0L471 0L429 0L429 0L386 0L386 0L343 0L343 0L300 0L300 0L257 0L257 0L214 0L214 0L171 0L171 0L129 0L129 0L86 0L86 0L43 0L43 0L0 0Z" fill="#550000"></path><path d="M0 81L43 81L43 90L86 90L86 82L129 82L129 77L171 77L171 81L214 81L214 105L257 105L257 45L300 45L300 46L343 46L343 92L386 92L386 93L429 93L429 100L471 100L471 73L514 73L514 69L557 69L557 76L600 76L600 87L643 87L643 79L686 79L686 49L729 49L729 90L771 90L771 50L814 50L814 59L857 59L857 46L900 46L900 93L900 0L900 0L857 0L857 0L814 0L814 0L771 0L771 0L729 0L729 0L686 0L686 0L643 0L643 0L600 0L600 0L557 0L557 0L514 0L514 0L471 0L471 0L429 0L429 0L386 0L386 0L343 0L343 0L300 0L300 0L257 0L257 0L214 0L214 0L171 0L171 0L129 0L129 0L86 0L86 0L43 0L43 0L0 0Z" fill="#4a0000"></path><path d="M0 52L43 52L43 34L86 34L86 56L129 56L129 30L171 30L171 30L214 30L214 81L257 81L257 76L300 76L300 35L343 35L343 74L386 74L386 48L429 48L429 52L471 52L471 73L514 73L514 79L557 79L557 68L600 68L600 37L643 37L643 38L686 38L686 67L729 67L729 56L771 56L771 74L814 74L814 66L857 66L857 33L900 33L900 72L900 0L900 0L857 0L857 0L814 0L814 0L771 0L771 0L729 0L729 0L686 0L686 0L643 0L643 0L600 0L600 0L557 0L557 0L514 0L514 0L471 0L471 0L429 0L429 0L386 0L386 0L343 0L343 0L300 0L300 0L257 0L257 0L214 0L214 0L171 0L171 0L129 0L129 0L86 0L86 0L43 0L43 0L0 0Z" fill="#410000"></path><path d="M0 24L43 24L43 39L86 39L86 15L129 15L129 10L171 10L171 2L214 2L214 32L257 32L257 30L300 30L300 49L343 49L343 4L386 4L386 3L429 3L429 45L471 45L471 41L514 41L514 51L557 51L557 8L600 8L600 6L643 6L643 48L686 48L686 17L729 17L729 18L771 18L771 38L814 38L814 52L857 52L857 17L900 17L900 10L900 0L900 0L857 0L857 0L814 0L814 0L771 0L771 0L729 0L729 0L686 0L686 0L643 0L643 0L600 0L600 0L557 0L557 0L514 0L514 0L471 0L471 0L429 0L429 0L386 0L386 0L343 0L343 0L300 0L300 0L257 0L257 0L214 0L214 0L171 0L171 0L129 0L129 0L86 0L86 0L43 0L43 0L0 0Z" fill="#000000"></path></svg>