<svg id="visual" viewBox="0 0 900 600" width="900" height="600" xmlns="http://www.w3.org/2000/svg" xmlns:xlink="http://www.w3.org/1999/xlink" version="1.1"><path d="M0 37L82 37L82 43L164 43L164 43L245 43L245 19L327 19L327 25L409 25L409 31L491 31L491 43L573 43L573 19L655 19L655 25L736 25L736 25L818 25L818 13L900 13L900 37L900 0L900 0L818 0L818 0L736 0L736 0L655 0L655 0L573 0L573 0L491 0L491 0L409 0L409 0L327 0L327 0L245 0L245 0L164 0L164 0L82 0L82 0L0 0Z" fill="#003249"></path><path d="M0 91L82 91L82 133L164 133L164 139L245 139L245 109L327 109L327 67L409 67L409 103L491 103L491 97L573 97L573 67L655 67L655 115L736 115L736 109L818 109L818 115L900 115L900 127L900 35L900 11L818 11L818 23L736 23L736 23L655 23L655 17L573 17L573 41L491 41L491 29L409 29L409 23L327 23L327 17L245 17L245 41L164 41L164 41L82 41L82 35L0 35Z" fill="#093044"></path><path d="M0 139L82 139L82 163L164 163L164 181L245 181L245 151L327 151L327 97L409 97L409 157L491 157L491 127L573 127L573 109L655 109L655 169L736 169L736 139L818 139L818 169L900 169L900 181L900 125L900 113L818 113L818 107L736 107L736 113L655 113L655 65L573 65L573 95L491 95L491 101L409 101L409 65L327 65L327 107L245 107L245 137L164 137L164 131L82 131L82 89L0 89Z" fill="#102e40"></path><path d="M0 175L82 175L82 211L164 211L164 241L245 241L245 217L327 217L327 157L409 157L409 205L491 205L491 181L573 181L573 133L655 133L655 199L736 199L736 193L818 193L818 211L900 211L900 211L900 179L900 167L818 167L818 137L736 137L736 167L655 167L655 107L573 107L573 125L491 125L491 155L409 155L409 95L327 95L327 149L245 149L245 179L164 179L164 161L82 161L82 137L0 137Z" fill="#152d3c"></path><path d="M0 253L82 253L82 367L164 367L164 385L245 385L245 289L327 289L327 355L409 355L409 295L491 295L491 361L573 361L573 343L655 343L655 331L736 331L736 301L818 301L818 319L900 319L900 319L900 209L900 209L818 209L818 191L736 191L736 197L655 197L655 131L573 131L573 179L491 179L491 203L409 203L409 155L327 155L327 215L245 215L245 239L164 239L164 209L82 209L82 173L0 173Z" fill="#192b37"></path><path d="M0 391L82 391L82 439L164 439L164 451L245 451L245 433L327 433L327 433L409 433L409 415L491 415L491 469L573 469L573 457L655 457L655 421L736 421L736 421L818 421L818 409L900 409L900 439L900 317L900 317L818 317L818 299L736 299L736 329L655 329L655 341L573 341L573 359L491 359L491 293L409 293L409 353L327 353L327 287L245 287L245 383L164 383L164 365L82 365L82 251L0 251Z" fill="#1b2933"></path><path d="M0 451L82 451L82 475L164 475L164 493L245 493L245 499L327 499L327 475L409 475L409 487L491 487L491 511L573 511L573 529L655 529L655 481L736 481L736 451L818 451L818 487L900 487L900 493L900 437L900 407L818 407L818 419L736 419L736 419L655 419L655 455L573 455L573 467L491 467L491 413L409 413L409 431L327 431L327 431L245 431L245 449L164 449L164 437L82 437L82 389L0 389Z" fill="#1e272f"></path><path d="M0 499L82 499L82 505L164 505L164 529L245 529L245 535L327 535L327 499L409 499L409 523L491 523L491 553L573 553L573 547L655 547L655 511L736 511L736 499L818 499L818 523L900 523L900 511L900 491L900 485L818 485L818 449L736 449L736 479L655 479L655 527L573 527L573 509L491 509L491 485L409 485L409 473L327 473L327 497L245 497L245 491L164 491L164 473L82 473L82 449L0 449Z" fill="#1f262a"></path><path d="M0 559L82 559L82 559L164 559L164 589L245 589L245 577L327 577L327 571L409 571L409 577L491 577L491 589L573 589L573 583L655 583L655 577L736 577L736 553L818 553L818 553L900 553L900 589L900 509L900 521L818 521L818 497L736 497L736 509L655 509L655 545L573 545L573 551L491 551L491 521L409 521L409 497L327 497L327 533L245 533L245 527L164 527L164 503L82 503L82 497L0 497Z" fill="#212426"></path><path d="M0 601L82 601L82 601L164 601L164 601L245 601L245 601L327 601L327 601L409 601L409 601L491 601L491 601L573 601L573 601L655 601L655 601L736 601L736 601L818 601L818 601L900 601L900 601L900 587L900 551L818 551L818 551L736 551L736 575L655 575L655 581L573 581L573 587L491 587L491 575L409 575L409 569L327 569L327 575L245 575L245 587L164 587L164 557L82 557L82 557L0 557Z" fill="#222222"></path></svg>