<svg id="visual" viewBox="0 0 900 450" width="900" height="450" xmlns="http://www.w3.org/2000/svg" xmlns:xlink="http://www.w3.org/1999/xlink" version="1.1"><path d="M0 69L56 69L56 69L113 69L113 123L169 123L169 136L225 136L225 141L281 141L281 78L338 78L338 64L394 64L394 64L450 64L450 109L506 109L506 132L563 132L563 73L619 73L619 100L675 100L675 132L731 132L731 141L788 141L788 123L844 123L844 82L900 82L900 73L900 0L900 0L844 0L844 0L788 0L788 0L731 0L731 0L675 0L675 0L619 0L619 0L563 0L563 0L506 0L506 0L450 0L450 0L394 0L394 0L338 0L338 0L281 0L281 0L225 0L225 0L169 0L169 0L113 0L113 0L56 0L56 0L0 0Z" fill="#000000"></path><path d="M0 82L56 82L56 100L113 100L113 150L169 150L169 150L225 150L225 159L281 159L281 91L338 91L338 87L394 87L394 91L450 91L450 132L506 132L506 150L563 150L563 100L619 100L619 127L675 127L675 150L731 150L731 159L788 159L788 150L844 150L844 105L900 105L900 87L900 71L900 80L844 80L844 121L788 121L788 139L731 139L731 130L675 130L675 98L619 98L619 71L563 71L563 130L506 130L506 107L450 107L450 62L394 62L394 62L338 62L338 76L281 76L281 139L225 139L225 134L169 134L169 121L113 121L113 67L56 67L56 67L0 67Z" fill="#000b22"></path><path d="M0 114L56 114L56 141L113 141L113 190L169 190L169 195L225 195L225 190L281 190L281 127L338 127L338 136L394 136L394 141L450 141L450 159L506 159L506 199L563 199L563 123L619 123L619 150L675 150L675 181L731 181L731 186L788 186L788 190L844 190L844 141L900 141L900 132L900 85L900 103L844 103L844 148L788 148L788 157L731 157L731 148L675 148L675 125L619 125L619 98L563 98L563 148L506 148L506 130L450 130L450 89L394 89L394 85L338 85L338 89L281 89L281 157L225 157L225 148L169 148L169 148L113 148L113 98L56 98L56 80L0 80Z" fill="#001227"></path><path d="M0 168L56 168L56 199L113 199L113 226L169 226L169 240L225 240L225 226L281 226L281 163L338 163L338 181L394 181L394 186L450 186L450 190L506 190L506 226L563 226L563 154L619 154L619 204L675 204L675 244L731 244L731 217L788 217L788 222L844 222L844 172L900 172L900 181L900 130L900 139L844 139L844 188L788 188L788 184L731 184L731 179L675 179L675 148L619 148L619 121L563 121L563 197L506 197L506 157L450 157L450 139L394 139L394 134L338 134L338 125L281 125L281 188L225 188L225 193L169 193L169 188L113 188L113 139L56 139L56 112L0 112Z" fill="#00172c"></path><path d="M0 195L56 195L56 213L113 213L113 240L169 240L169 253L225 253L225 262L281 262L281 181L338 181L338 208L394 208L394 217L450 217L450 226L506 226L506 258L563 258L563 177L619 177L619 235L675 235L675 258L731 258L731 249L788 249L788 253L844 253L844 208L900 208L900 208L900 179L900 170L844 170L844 220L788 220L788 215L731 215L731 242L675 242L675 202L619 202L619 152L563 152L563 224L506 224L506 188L450 188L450 184L394 184L394 179L338 179L338 161L281 161L281 224L225 224L225 238L169 238L169 224L113 224L113 197L56 197L56 166L0 166Z" fill="#001c30"></path><path d="M0 235L56 235L56 253L113 253L113 307L169 307L169 294L225 294L225 316L281 316L281 231L338 231L338 240L394 240L394 271L450 271L450 303L506 303L506 321L563 321L563 231L619 231L619 312L675 312L675 334L731 334L731 289L788 289L788 298L844 298L844 280L900 280L900 249L900 206L900 206L844 206L844 251L788 251L788 247L731 247L731 256L675 256L675 233L619 233L619 175L563 175L563 256L506 256L506 224L450 224L450 215L394 215L394 206L338 206L338 179L281 179L281 260L225 260L225 251L169 251L169 238L113 238L113 211L56 211L56 193L0 193Z" fill="#002035"></path><path d="M0 253L56 253L56 280L113 280L113 343L169 343L169 330L225 330L225 334L281 334L281 253L338 253L338 262L394 262L394 298L450 298L450 339L506 339L506 352L563 352L563 267L619 267L619 348L675 348L675 357L731 357L731 321L788 321L788 325L844 325L844 298L900 298L900 271L900 247L900 278L844 278L844 296L788 296L788 287L731 287L731 332L675 332L675 310L619 310L619 229L563 229L563 319L506 319L506 301L450 301L450 269L394 269L394 238L338 238L338 229L281 229L281 314L225 314L225 292L169 292L169 305L113 305L113 251L56 251L56 233L0 233Z" fill="#00243a"></path><path d="M0 276L56 276L56 303L113 303L113 361L169 361L169 357L225 357L225 352L281 352L281 271L338 271L338 285L394 285L394 312L450 312L450 352L506 352L506 370L563 370L563 280L619 280L619 361L675 361L675 370L731 370L731 334L788 334L788 339L844 339L844 312L900 312L900 289L900 269L900 296L844 296L844 323L788 323L788 319L731 319L731 355L675 355L675 346L619 346L619 265L563 265L563 350L506 350L506 337L450 337L450 296L394 296L394 260L338 260L338 251L281 251L281 332L225 332L225 328L169 328L169 341L113 341L113 278L56 278L56 251L0 251Z" fill="#00293f"></path><path d="M0 321L56 321L56 334L113 334L113 393L169 393L169 375L225 375L225 375L281 375L281 312L338 312L338 321L394 321L394 330L450 330L450 388L506 388L506 388L563 388L563 321L619 321L619 388L675 388L675 393L731 393L731 366L788 366L788 375L844 375L844 348L900 348L900 312L900 287L900 310L844 310L844 337L788 337L788 332L731 332L731 368L675 368L675 359L619 359L619 278L563 278L563 368L506 368L506 350L450 350L450 310L394 310L394 283L338 283L338 269L281 269L281 350L225 350L225 355L169 355L169 359L113 359L113 301L56 301L56 274L0 274Z" fill="#002d44"></path><path d="M0 451L56 451L56 451L113 451L113 451L169 451L169 451L225 451L225 451L281 451L281 451L338 451L338 451L394 451L394 451L450 451L450 451L506 451L506 451L563 451L563 451L619 451L619 451L675 451L675 451L731 451L731 451L788 451L788 451L844 451L844 451L900 451L900 451L900 310L900 346L844 346L844 373L788 373L788 364L731 364L731 391L675 391L675 386L619 386L619 319L563 319L563 386L506 386L506 386L450 386L450 328L394 328L394 319L338 319L338 310L281 310L281 373L225 373L225 373L169 373L169 391L113 391L113 332L56 332L56 319L0 319Z" fill="#003249"></path></svg>