<svg id="visual" viewBox="0 0 1000 350" width="1000" height="350" xmlns="http://www.w3.org/2000/svg" xmlns:xlink="http://www.w3.org/1999/xlink" version="1.1"><rect x="0" y="0" width="1000" height="350" fill="#FFEFD3"></rect><path d="M0 21L43 21L43 27L87 27L87 22L130 22L130 32L174 32L174 38L217 38L217 38L261 38L261 27L304 27L304 23L348 23L348 42L391 42L391 30L435 30L435 55L478 55L478 36L522 36L522 24L565 24L565 32L609 32L609 37L652 37L652 47L696 47L696 21L739 21L739 44L783 44L783 33L826 33L826 43L870 43L870 59L913 59L913 62L957 62L957 29L1000 29L1000 50L1000 351L1000 351L957 351L957 351L913 351L913 351L870 351L870 351L826 351L826 351L783 351L783 351L739 351L739 351L696 351L696 351L652 351L652 351L609 351L609 351L565 351L565 351L522 351L522 351L478 351L478 351L435 351L435 351L391 351L391 351L348 351L348 351L304 351L304 351L261 351L261 351L217 351L217 351L174 351L174 351L130 351L130 351L87 351L87 351L43 351L43 351L0 351Z" fill="#b1b1aa"></path><path d="M0 63L43 63L43 60L87 60L87 68L130 68L130 67L174 67L174 57L217 57L217 69L261 69L261 63L304 63L304 54L348 54L348 54L391 54L391 48L435 48L435 52L478 52L478 72L522 72L522 57L565 57L565 73L609 73L609 70L652 70L652 68L696 68L696 66L739 66L739 78L783 78L783 67L826 67L826 50L870 50L870 84L913 84L913 53L957 53L957 78L1000 78L1000 73L1000 351L1000 351L957 351L957 351L913 351L913 351L870 351L870 351L826 351L826 351L783 351L783 351L739 351L739 351L696 351L696 351L652 351L652 351L609 351L609 351L565 351L565 351L522 351L522 351L478 351L478 351L435 351L435 351L391 351L391 351L348 351L348 351L304 351L304 351L261 351L261 351L217 351L217 351L174 351L174 351L130 351L130 351L87 351L87 351L43 351L43 351L0 351Z" fill="#9f9f99"></path><path d="M0 98L43 98L43 75L87 75L87 87L130 87L130 88L174 88L174 88L217 88L217 76L261 76L261 104L304 104L304 111L348 111L348 105L391 105L391 101L435 101L435 108L478 108L478 104L522 104L522 85L565 85L565 107L609 107L609 100L652 100L652 105L696 105L696 79L739 79L739 108L783 108L783 74L826 74L826 85L870 85L870 104L913 104L913 106L957 106L957 102L1000 102L1000 97L1000 351L1000 351L957 351L957 351L913 351L913 351L870 351L870 351L826 351L826 351L783 351L783 351L739 351L739 351L696 351L696 351L652 351L652 351L609 351L609 351L565 351L565 351L522 351L522 351L478 351L478 351L435 351L435 351L391 351L391 351L348 351L348 351L304 351L304 351L261 351L261 351L217 351L217 351L174 351L174 351L130 351L130 351L87 351L87 351L43 351L43 351L0 351Z" fill="#8e8e88"></path><path d="M0 127L43 127L43 112L87 112L87 115L130 115L130 104L174 104L174 102L217 102L217 112L261 112L261 122L304 122L304 115L348 115L348 120L391 120L391 117L435 117L435 122L478 122L478 110L522 110L522 115L565 115L565 131L609 131L609 109L652 109L652 103L696 103L696 123L739 123L739 109L783 109L783 135L826 135L826 106L870 106L870 103L913 103L913 107L957 107L957 130L1000 130L1000 131L1000 351L1000 351L957 351L957 351L913 351L913 351L870 351L870 351L826 351L826 351L783 351L783 351L739 351L739 351L696 351L696 351L652 351L652 351L609 351L609 351L565 351L565 351L522 351L522 351L478 351L478 351L435 351L435 351L391 351L391 351L348 351L348 351L304 351L304 351L261 351L261 351L217 351L217 351L174 351L174 351L130 351L130 351L87 351L87 351L43 351L43 351L0 351Z" fill="#7d7d77"></path><path d="M0 148L43 148L43 143L87 143L87 146L130 146L130 155L174 155L174 134L217 134L217 157L261 157L261 158L304 158L304 142L348 142L348 149L391 149L391 161L435 161L435 142L478 142L478 158L522 158L522 156L565 156L565 130L609 130L609 134L652 134L652 137L696 137L696 145L739 145L739 151L783 151L783 130L826 130L826 134L870 134L870 141L913 141L913 134L957 134L957 148L1000 148L1000 147L1000 351L1000 351L957 351L957 351L913 351L913 351L870 351L870 351L826 351L826 351L783 351L783 351L739 351L739 351L696 351L696 351L652 351L652 351L609 351L609 351L565 351L565 351L522 351L522 351L478 351L478 351L435 351L435 351L391 351L391 351L348 351L348 351L304 351L304 351L261 351L261 351L217 351L217 351L174 351L174 351L130 351L130 351L87 351L87 351L43 351L43 351L0 351Z" fill="#6d6d67"></path><path d="M0 175L43 175L43 169L87 169L87 154L130 154L130 162L174 162L174 185L217 185L217 160L261 160L261 156L304 156L304 152L348 152L348 184L391 184L391 169L435 169L435 182L478 182L478 175L522 175L522 162L565 162L565 173L609 173L609 163L652 163L652 173L696 173L696 181L739 181L739 186L783 186L783 160L826 160L826 172L870 172L870 166L913 166L913 166L957 166L957 155L1000 155L1000 165L1000 351L1000 351L957 351L957 351L913 351L913 351L870 351L870 351L826 351L826 351L783 351L783 351L739 351L739 351L696 351L696 351L652 351L652 351L609 351L609 351L565 351L565 351L522 351L522 351L478 351L478 351L435 351L435 351L391 351L391 351L348 351L348 351L304 351L304 351L261 351L261 351L217 351L217 351L174 351L174 351L130 351L130 351L87 351L87 351L43 351L43 351L0 351Z" fill="#5d5d57"></path><path d="M0 184L43 184L43 180L87 180L87 181L130 181L130 193L174 193L174 205L217 205L217 204L261 204L261 195L304 195L304 206L348 206L348 190L391 190L391 200L435 200L435 194L478 194L478 196L522 196L522 182L565 182L565 180L609 180L609 203L652 203L652 187L696 187L696 208L739 208L739 185L783 185L783 181L826 181L826 194L870 194L870 201L913 201L913 200L957 200L957 206L1000 206L1000 201L1000 351L1000 351L957 351L957 351L913 351L913 351L870 351L870 351L826 351L826 351L783 351L783 351L739 351L739 351L696 351L696 351L652 351L652 351L609 351L609 351L565 351L565 351L522 351L522 351L478 351L478 351L435 351L435 351L391 351L391 351L348 351L348 351L304 351L304 351L261 351L261 351L217 351L217 351L174 351L174 351L130 351L130 351L87 351L87 351L43 351L43 351L0 351Z" fill="#4d4d47"></path><path d="M0 208L43 208L43 234L87 234L87 204L130 204L130 224L174 224L174 219L217 219L217 232L261 232L261 223L304 223L304 229L348 229L348 206L391 206L391 216L435 216L435 211L478 211L478 204L522 204L522 207L565 207L565 218L609 218L609 205L652 205L652 222L696 222L696 208L739 208L739 220L783 220L783 226L826 226L826 212L870 212L870 209L913 209L913 216L957 216L957 234L1000 234L1000 232L1000 351L1000 351L957 351L957 351L913 351L913 351L870 351L870 351L826 351L826 351L783 351L783 351L739 351L739 351L696 351L696 351L652 351L652 351L609 351L609 351L565 351L565 351L522 351L522 351L478 351L478 351L435 351L435 351L391 351L391 351L348 351L348 351L304 351L304 351L261 351L261 351L217 351L217 351L174 351L174 351L130 351L130 351L87 351L87 351L43 351L43 351L0 351Z" fill="#3e3e39"></path><path d="M0 233L43 233L43 240L87 240L87 236L130 236L130 248L174 248L174 252L217 252L217 248L261 248L261 238L304 238L304 257L348 257L348 259L391 259L391 254L435 254L435 247L478 247L478 257L522 257L522 255L565 255L565 253L609 253L609 243L652 243L652 238L696 238L696 233L739 233L739 253L783 253L783 257L826 257L826 231L870 231L870 255L913 255L913 247L957 247L957 232L1000 232L1000 237L1000 351L1000 351L957 351L957 351L913 351L913 351L870 351L870 351L826 351L826 351L783 351L783 351L739 351L739 351L696 351L696 351L652 351L652 351L609 351L609 351L565 351L565 351L522 351L522 351L478 351L478 351L435 351L435 351L391 351L391 351L348 351L348 351L304 351L304 351L261 351L261 351L217 351L217 351L174 351L174 351L130 351L130 351L87 351L87 351L43 351L43 351L0 351Z" fill="#30302a"></path><path d="M0 285L43 285L43 266L87 266L87 263L130 263L130 264L174 264L174 271L217 271L217 269L261 269L261 275L304 275L304 284L348 284L348 275L391 275L391 268L435 268L435 285L478 285L478 268L522 268L522 257L565 257L565 260L609 260L609 259L652 259L652 265L696 265L696 265L739 265L739 258L783 258L783 279L826 279L826 260L870 260L870 277L913 277L913 267L957 267L957 261L1000 261L1000 276L1000 351L1000 351L957 351L957 351L913 351L913 351L870 351L870 351L826 351L826 351L783 351L783 351L739 351L739 351L696 351L696 351L652 351L652 351L609 351L609 351L565 351L565 351L522 351L522 351L478 351L478 351L435 351L435 351L391 351L391 351L348 351L348 351L304 351L304 351L261 351L261 351L217 351L217 351L174 351L174 351L130 351L130 351L87 351L87 351L43 351L43 351L0 351Z" fill="#22221d"></path><path d="M0 287L43 287L43 307L87 307L87 306L130 306L130 305L174 305L174 293L217 293L217 305L261 305L261 295L304 295L304 303L348 303L348 301L391 301L391 304L435 304L435 297L478 297L478 283L522 283L522 292L565 292L565 305L609 305L609 309L652 309L652 292L696 292L696 301L739 301L739 307L783 307L783 304L826 304L826 300L870 300L870 297L913 297L913 307L957 307L957 302L1000 302L1000 305L1000 351L1000 351L957 351L957 351L913 351L913 351L870 351L870 351L826 351L826 351L783 351L783 351L739 351L739 351L696 351L696 351L652 351L652 351L609 351L609 351L565 351L565 351L522 351L522 351L478 351L478 351L435 351L435 351L391 351L391 351L348 351L348 351L304 351L304 351L261 351L261 351L217 351L217 351L174 351L174 351L130 351L130 351L87 351L87 351L43 351L43 351L0 351Z" fill="#15150f"></path><path d="M0 327L43 327L43 325L87 325L87 334L130 334L130 329L174 329L174 323L217 323L217 335L261 335L261 335L304 335L304 334L348 334L348 314L391 314L391 311L435 311L435 325L478 325L478 318L522 318L522 313L565 313L565 311L609 311L609 328L652 328L652 311L696 311L696 320L739 320L739 329L783 329L783 326L826 326L826 315L870 315L870 311L913 311L913 333L957 333L957 317L1000 317L1000 316L1000 351L1000 351L957 351L957 351L913 351L913 351L870 351L870 351L826 351L826 351L783 351L783 351L739 351L739 351L696 351L696 351L652 351L652 351L609 351L609 351L565 351L565 351L522 351L522 351L478 351L478 351L435 351L435 351L391 351L391 351L348 351L348 351L304 351L304 351L261 351L261 351L217 351L217 351L174 351L174 351L130 351L130 351L87 351L87 351L43 351L43 351L0 351Z" fill="#000000"></path></svg>